<svg width="172" height="53" viewBox="0 0 172 53" fill="none" xmlns="http://www.w3.org/2000/svg">
<path d="M31.8008 0.5L31.8713 0.521193C32.0272 0.568107 32.1983 0.585908 32.408 0.59433C32.4615 0.596478 32.5213 0.597994 32.585 0.599608C32.7464 0.603699 32.9327 0.608423 33.1049 0.625674L33.1083 0.626015V0.626026C38.3553 1.18798 42.6694 4.68477 43.9067 10.0812C44.504 12.6793 44.4232 15.2545 43.3381 17.7618L43.3365 17.7655C42.7362 19.1227 41.9023 20.3618 40.8733 21.4251C40.824 21.4768 40.7835 21.5181 40.7457 21.5567C40.698 21.6053 40.6545 21.6497 40.6029 21.7053C40.5234 21.7913 40.4776 21.8529 40.4525 21.8947C40.4844 21.9255 40.5388 21.9695 40.628 22.0268L40.6298 22.028C42.913 23.5091 44.8071 25.526 46.1508 27.9062C47.0449 29.4893 47.616 31.237 47.8308 33.0461C48.0469 34.6527 48.0602 36.2805 47.8703 37.8904L47.8698 37.8947C47.5039 40.782 46.435 43.3902 44.5907 45.6487L44.5905 45.6489C42.573 48.1166 40.1058 49.9919 37.0326 50.9984C35.6697 51.4486 34.2451 51.6795 32.811 51.6824H32.81C31.5471 51.6824 30.2828 51.6858 29.0178 51.6892C26.2581 51.6967 23.4947 51.7041 20.7335 51.6762H20.7334C18.2364 51.6505 15.7486 51.6538 13.2574 51.6572C11.3357 51.6598 9.41206 51.6624 7.48055 51.6516C7.4801 51.6516 7.47965 51.6516 7.4792 51.6516L7.48199 51.1516C6.80404 51.1516 6.14072 51.0925 5.5591 50.6885L31.8008 0.5ZM31.8008 0.5H31.7272M31.8008 0.5H31.7272M7.28727 45.9707C6.45821 45.9687 5.66159 46.2912 5.06416 46.8687L41.7782 31.0025C40.0589 27.5078 37.2801 25.3127 33.5392 24.3679C32.5637 24.1215 31.5602 24.0883 30.5481 24.1215C29.2257 24.1616 27.9017 24.1552 26.5773 24.1488H26.5772C26.2751 24.1473 25.9729 24.1458 25.6708 24.1449M7.28727 45.9707C7.28758 45.9707 7.28789 45.9707 7.28821 45.9707L7.28689 46.4707L7.28598 45.9707C7.28641 45.9707 7.28684 45.9707 7.28727 45.9707ZM7.28727 45.9707C9.54237 45.9666 11.7985 45.9679 14.0538 45.9693C15.1813 45.97 16.3086 45.9707 17.4354 45.9707C18.7166 45.9707 19.9975 45.9717 21.2781 45.9727C25.1186 45.9757 28.9569 45.9787 32.7959 45.9547C35.0139 45.9408 36.9489 45.071 38.6503 43.5993L38.6504 43.5992C40.525 41.9788 41.7653 39.9812 42.1966 37.5308L42.1976 37.5253L42.1976 37.5253C42.5988 35.3854 42.2939 33.1718 41.3301 31.2243L41.3296 31.2232C39.6766 27.8634 37.0189 25.7624 33.4167 24.8527C32.5078 24.6231 31.5583 24.5886 30.5646 24.6212L30.5633 24.6213C29.2312 24.6617 27.8963 24.6552 26.5714 24.6488C26.2703 24.6473 25.9698 24.6458 25.6699 24.6449M25.6699 24.6449C25.6702 24.6449 25.6705 24.6449 25.6708 24.6449V24.1449M25.6699 24.6449C25.6697 24.6449 25.6695 24.6449 25.6693 24.6449L25.6708 24.1449M25.6699 24.6449C24.5071 24.6449 23.3432 24.6226 22.1866 24.5955C22.1865 24.5955 22.1865 24.5955 22.1864 24.5955L22.1981 24.0956C23.3541 24.1227 24.5136 24.1449 25.6708 24.1449M31.7272 0.5H14.3517H14.2751L14.202 0.522929C14.0652 0.565869 13.9133 0.584391 13.7236 0.595381C13.676 0.59814 13.6223 0.600475 13.5648 0.602973C13.4179 0.609359 13.2464 0.616813 13.0891 0.635176L13.0888 0.63521C12.2621 0.732163 11.5495 1.05472 11.0665 1.60192C10.5776 2.15574 10.3687 2.88966 10.4654 3.71065L10.4655 3.71108M31.7272 0.5L10.4655 3.71108M32.5516 18.8605L32.5525 18.8605C33.6328 18.8522 34.6626 18.7072 35.6193 18.2805C37.0888 17.6238 37.9552 16.4836 38.3115 14.8987C38.6535 13.3735 38.6736 11.8932 38.1062 10.4805L38.106 10.4802C37.2515 8.34823 35.6716 7.07807 33.4682 6.50191C33.2343 6.45922 32.996 6.44615 32.7589 6.46303L32.7412 6.46429H32.7234H13.9249H13.9223V6.46428C13.5492 6.46227 13.1771 6.42886 12.8096 6.3644L32.5516 18.8605ZM32.5516 18.8605C29.0481 18.8938 25.5468 18.9159 22.0452 18.8937M32.5516 18.8605L22.0452 18.8937M22.0452 18.8937C21.411 18.8894 20.8809 19.0543 20.435 19.3619C19.9976 19.6637 19.6705 20.0828 19.4023 20.5418L22.0452 18.8937ZM10.4655 3.71108C10.5533 4.45127 10.7937 5.06486 11.2077 5.52544M10.4655 3.71108L11.2077 5.52544M0.570926 21.1897C0.571043 21.189 0.571162 21.1882 0.571283 21.1874C0.572632 21.1783 0.574008 21.1675 0.575794 21.1525C0.57622 21.1489 0.576732 21.1446 0.577299 21.1397C0.578693 21.1278 0.580422 21.113 0.582035 21.1C0.586882 21.0612 0.594629 21.0051 0.609748 20.944L0.610988 20.939L0.611014 20.939C0.911884 19.7749 1.91323 18.9777 3.15556 18.9286L3.15598 18.9286C3.9664 18.8973 4.77477 18.903 5.57099 18.9106C5.61672 18.911 5.66242 18.9114 5.70807 18.9119C6.46078 18.9191 7.20214 18.9262 7.942 18.9051L7.94213 18.905C9.0965 18.8723 10.261 18.8733 11.4168 18.8742C12.1318 18.8748 12.8435 18.8754 13.5475 18.868C14.0284 18.8557 14.507 18.9387 14.9562 19.1121L14.9624 19.1145L14.9624 19.1146C16.1786 19.603 16.7944 20.741 16.6599 22.0713C16.6599 22.0714 16.6599 22.0715 16.6599 22.0716L16.1624 22.0213L0.570926 21.1897ZM0.570926 21.1897L0.5 21.2918V21.4485V22.0028V22.2206L0.57616 22.2914C0.577831 22.3057 0.580024 22.3222 0.582999 22.34C0.672708 22.9424 0.966537 23.4958 1.41573 23.9053C1.86654 24.3163 2.4457 24.5567 3.05404 24.5841L3.05404 24.5841L3.05938 24.5843C6.01541 24.6857 8.96904 24.6733 11.9187 24.6042L11.9193 24.6041C12.1253 24.5991 12.3461 24.6009 12.576 24.6029C13.1545 24.6078 13.7905 24.6131 14.3926 24.5096L0.570926 21.1897ZM24.6123 42.1925H24.182H24.1767H24.1714H24.1661H24.1608H24.1555H24.1502H24.1449H24.1396H24.1343H24.129H24.1237H24.1185H24.1132H24.1079H24.1026H24.0973H24.092H24.0867H24.0814H24.0761H24.0708H24.0655H24.0602H24.0549H24.0496H24.0443H24.039H24.0337H24.0285H24.0232H24.0179H24.0126H24.0073H24.002H23.9967H23.9914H23.9861H23.9808H23.9755H23.9702H23.9649H23.9596H23.9543H23.949H23.9438H23.9385H23.9332H23.9279H23.9226H23.9173H23.912H23.9067H23.9014H23.8961H23.8908H23.8855H23.8802H23.8749H23.8696H23.8643H23.859H23.8538H23.8485H23.8432H23.8379H23.8326H23.8273H23.822H23.8167H23.8114H23.8061H23.8008H23.7955H23.7902H23.7849H23.7796H23.7743H23.769H23.7638H23.7585H23.7532H23.7479H23.7426H23.7373H23.732H23.7267H23.7214H23.7161H23.7108H23.7055H23.7002H23.6949H23.6896H23.6843H23.679H23.6737H23.6685H23.6632H23.6579H23.6526H23.6473H23.642H23.6367H23.6314H23.6261H23.6208H23.6155H23.6102H23.6049H23.5996H23.5943H23.589H23.5837H23.5785H23.5732H23.5679H23.5626H23.5573H23.552H23.5467H23.5414H23.5361H23.5308H23.5255H23.5202H23.5149H23.5096H23.5043H23.499H23.4938H23.4885H23.4832H23.4779H23.4726H23.4673H23.462H23.4567H23.4514H23.4461H23.4408H23.4355H23.4302H23.4249H23.4196H23.4143H23.409H23.4038H23.3985H23.3932H23.3879H23.3826H23.3773H23.372H23.3667H23.3614H23.3561H23.3508H23.3455H23.3402H23.3349H23.3296H23.3243H23.319H23.3138H23.3085H23.3032H23.2979H23.2926H23.2873H23.282H23.2767H23.2714H23.2661H23.2608H23.2555H23.2502H23.2449H23.2396H23.2343H23.229H23.2238H23.2185H23.2132H23.2079H23.2026H23.1973H23.192H23.1867H23.1814H23.1761H23.1708H23.1655H23.1602H23.1549H23.1496H23.1443H23.139H23.1338H23.1285H23.1232H23.1179H23.1126H23.1073H23.102H23.0967H23.0914H23.0861H23.0808H23.0755H23.0702H23.0649H23.0596H23.0543H23.049H23.0438H23.0385H23.0332H23.0279H23.0226H23.0173H23.012H23.0067H23.0014H22.9961H22.9908H22.9855H22.9802H22.9749H22.9696H22.9643H22.959H22.9538H22.9485H22.9432H22.9379H22.9326H22.9273H22.922H22.9167H22.9114H22.9061H22.9008H22.8955H22.8902H22.8849H22.8796H22.8743H22.869H22.8638H22.8585H22.8532H22.8479H22.8426H22.8373H22.832H22.8267H22.8214H22.8161H22.8108H22.8055H22.8002H22.7949H22.7896H22.7843H22.779H22.7738H22.7685H22.7632H22.7579H22.7526H22.7473H22.742H22.7367H22.7314H22.7261H22.7208H22.7155H22.7102H22.7049H22.6996H22.6943H22.689H22.6838H22.6785H22.6732H22.6679H22.6626H22.6573H22.652H22.6467H22.6414H22.6361H22.6308H22.6255H22.6202H22.6149H22.6096H22.6043H22.599H22.5938H22.5885H22.5832H22.5779H22.5726H22.5673H22.562H22.5567H22.5514H22.5461H22.5408H22.5355H22.5302H22.5249H22.5196H22.5143H22.509H22.5038H22.4985H22.4932H22.4879H22.4826H22.4773H22.472H22.4667H22.4614H22.4561H22.4508H22.4455H22.4402H22.4349H22.4296H22.4243H22.419H22.4138H22.4085H22.4032H22.3979H22.3926H22.3873H22.382H22.3767H22.3714H22.3661H22.3608H22.3555H22.3502H22.3449H22.3396H22.3343H22.3291H22.3238H22.3185H22.3132H22.3079H22.3026H22.2973H22.292H22.2867H22.2814H22.2761H22.2708H22.2655H22.2602H22.2549H22.2496H22.2443H22.239H22.2338H22.2285H22.2232H22.2179H22.2126H22.2073H22.202H22.1967H22.1914H22.1861H22.1808H22.1755H22.1702H22.1649H22.1596H22.1543H22.149H22.1438H22.1385H22.1332H22.1279H22.1226H22.1173H22.112H22.1067H22.1014H22.0961H22.0908H22.0855H22.0802H22.0749H22.0696H22.0643H22.059H22.0538H22.0485H22.0432H22.0379H22.0326H22.0273H22.022H22.0167H22.0114H22.0061H22.0008H21.9955H21.9902H21.9849H21.9796H21.9743H21.969H21.9638H21.9585H21.9532H21.9479H21.9426H21.9373H21.932H21.9267H21.9214H21.9161H21.9108H21.9055H21.9002H21.8949H21.8896H21.8843H21.8791H21.8738H21.8685H21.8632H21.8579H21.8526H21.8473H21.842H21.8367H21.8314H21.8261H21.8208H21.8155H21.8102H21.8049H21.7996H21.7943H21.7891H21.7838H21.7785H21.7732H21.7679H21.7626H21.7573H21.752H21.7467H21.7414H21.7361H21.7308H21.7255H21.7202H21.7149H21.7096H21.7043H21.6991H21.6938H21.6885H21.6832H21.6779H21.6726H21.6673H21.662H21.6567H21.6514H21.6461H21.6408H21.6355H21.6302H21.6249H21.6196H21.6143H21.6091H21.6038H21.5985H21.5932H21.5879H21.5826H21.5773H21.572H21.5667H21.5614H21.5561H21.5508H21.5455H21.5402H21.5349H21.5296H21.5243H21.5191H21.5138H21.5085H21.5032H21.4979H21.4926H21.4873H21.482H21.4767H21.4714C20.9734 42.1925 20.4744 42.1939 19.9744 42.1954C18.1686 42.2006 16.3519 42.2059 14.538 42.1429L14.5378 42.1429C13.1389 42.0938 11.9455 41.1496 11.7988 39.7773L24.6123 42.1925ZM24.6123 42.1925L24.6208 42.1358M24.6123 42.1925L24.6208 42.1358M24.6208 42.1358H33.7549C34.4676 42.1457 35.1543 41.8705 35.6656 41.3718C36.175 40.875 36.469 40.1966 36.486 39.4841C36.5097 39.0972 36.4558 38.7094 36.3275 38.3439C36.1979 37.9747 35.995 37.6359 35.731 37.348C35.467 37.0602 35.1473 36.8295 34.7914 36.6703C34.4376 36.5121 34.0555 36.4279 33.6683 36.4229C32.8095 36.3917 31.9524 36.376 31.0968 36.376C30.5992 36.3748 30.1016 36.3735 29.604 36.3722C25.0588 36.3603 20.514 36.3484 15.9701 36.4007H15.97C15.8221 36.4024 15.6724 36.3996 15.5142 36.3964L15.4943 36.396C15.3445 36.393 15.1867 36.3898 15.0283 36.3909C14.6971 36.3934 14.3401 36.4146 13.9764 36.5035C13.9761 36.5035 13.9759 36.5036 13.9756 36.5037L14.0944 36.9893M24.6208 42.1358L11.7987 39.7771L12.2959 39.724M14.0944 36.9893C12.8983 37.28 12.1557 38.4158 12.2959 39.724M14.0944 36.9893C14.5533 36.8771 15.0202 36.8865 15.4867 36.896H15.4868H15.4869H15.487C15.6501 36.8993 15.8132 36.9026 15.9759 36.9006L14.0944 36.9893ZM12.2959 39.724C12.4118 40.808 13.3616 41.6013 14.5553 41.6432M12.2959 39.724L14.5553 41.6432M14.5553 41.6432C16.3588 41.7059 18.1631 41.7006 19.9675 41.6954H19.9676H19.9676H19.9676C20.4689 41.6939 20.9701 41.6925 21.4714 41.6925H24.182L24.1905 41.6358L14.5553 41.6432ZM30.5467 9.57142V9.57144C30.9736 9.58375 31.384 9.73743 31.7148 10.0078C32.3206 10.4858 32.7353 11.3537 32.8008 12.2336C32.8681 13.1383 32.5704 14.1363 31.642 14.7984L31.6324 14.8052L31.6323 14.8051C31.0791 15.1803 30.4216 15.3685 29.7549 15.3421C28.5522 15.3353 27.3517 15.3261 26.1519 15.3169C24.5132 15.3044 22.8757 15.2919 21.2353 15.2855H21.2353C19.6108 15.2789 17.9874 15.2811 16.3625 15.2833C15.5492 15.2844 14.7356 15.2855 13.9213 15.2855C13.2748 15.2855 12.5692 15.2038 11.9286 14.7799L11.9281 14.7796C10.9546 14.134 10.6049 13.1585 10.7043 12.0883C10.7534 11.5581 10.9267 11.0867 11.2303 10.6959C11.5331 10.3061 11.9456 10.0221 12.4344 9.83378L12.4393 9.8319L12.4393 9.83192C12.9255 9.65045 13.4408 9.56121 13.9592 9.56877L30.5467 9.57142ZM30.5467 9.57142L30.5424 9.57133M30.5467 9.57142L30.5424 9.57133M30.5424 9.57133C27.7398 9.51453 24.9304 9.53058 22.125 9.57121L30.5424 9.57133ZM21.6372 9.56877H21.6398L21.6372 10.0688L22.1274 10.0712L21.6372 9.56877ZM21.6372 9.56877H21.6222H21.6372ZM11.2077 5.52544C11.6245 5.98899 12.1778 6.25373 12.8094 6.36438L11.2077 5.52544ZM32.4169 27.5276L32.4168 27.5276C29.3029 27.5542 26.1877 27.5495 23.0698 27.5448C21.8599 27.543 20.6496 27.5411 19.4388 27.5411H19.4141H19.3894H19.3647H19.34H19.3153H19.2906H19.2659H19.2412H19.2165H19.1918H19.1671H19.1424H19.1177H19.093H19.0683H19.0436H19.0189H18.9942H18.9696H18.9449H18.9202H18.8955H18.8708H18.8461H18.8214H18.7967H18.772H18.7473H18.7226H18.6979H18.6732H18.6485H18.6238H18.5991H18.5744H18.5497H18.525H18.5003H18.4756H18.4509H18.4262H18.4015H18.3768H18.3521H18.3274H18.3027H18.278H18.2534H18.2287H18.204H18.1793H18.1546H18.1299H18.1052H18.0805H18.0558H18.0311H18.0064H17.9817H17.957H17.9323H17.9076H17.8829H17.8582H17.8335H17.8088H17.7841H17.7594H17.7347H17.71H17.6853H17.6606H17.6359H17.6112H17.5865H17.5618H17.5371H17.5124H17.4877H17.4631H17.4384H17.4137H17.389H17.3643H17.3396H17.3149H17.2902H17.2655H17.2408H17.2161H17.1914H17.1667H17.142H17.1173H17.0926H17.0679H17.0432H17.0185H16.9938H16.9691H16.9444H16.9197H16.895H16.8703H16.8456H16.8209H16.7962H16.7715H16.7468H16.7221H16.6974H16.6727H16.648H16.6233H16.5986H16.574H16.5493H16.5246H16.4999H16.4752H16.4505H16.4258H16.4011H16.3764H16.3517H16.327H16.3023H16.2776H16.2529H16.2282H16.2035H16.1788H16.1541H16.1294H16.1047H16.08H16.0553H16.0306H16.0059H15.9812H15.9565H15.9318H15.9071H15.8824H15.8577H15.833H15.8083H15.7836H15.7589H15.7342H15.7095H15.6848H15.6601H15.6354H15.6107H15.5861H15.5614H15.5367H15.512H15.4873H15.4626H15.4379H15.4132H15.3885H15.3638H15.3391H15.3144H15.2897H15.265H15.2403H15.2156H15.1909H15.1662H15.1415H15.1168H15.0921H15.0674H15.0427H15.018H14.9933H14.9686H14.9439H14.9192H14.8945H14.8698H14.8451H14.8204H14.7957H14.771H14.7463H14.7216H14.6969H14.6722H14.6475H14.6228H14.5981H14.5734H14.5487H14.524H14.4993H14.4746H14.4499H14.4252H14.4005H14.3759H14.3512H14.3265H14.3018H14.2771H14.2524H14.2277H14.203H14.1783H14.1536H14.1289H14.1042H14.0795H14.0548H14.0301H14.0054H13.9807H13.956H13.9313H13.9066H13.8819H13.8572H13.8325H13.8078H13.7831H13.7584H13.7337H13.709H13.6843H13.6596H13.6349H13.6102H13.5855H13.5608H13.5361H13.5114H13.4867H13.462H13.4373H13.4126H13.3879H13.3632H13.3385H13.3138H13.2891H13.2644H13.2397H13.215H13.1903H13.1656H13.1409H13.1162H13.0915H13.0668H13.0421H13.0174H12.9927H12.968H12.9433H12.9186H12.8939H12.8692H12.8445H12.8198H12.7951H12.7704H12.7457H12.7211H12.6964H12.6717H12.647H12.6223H12.5976H12.5729H12.5482H12.5235H12.4988H12.4741H12.4494H12.4247H12.4H12.3753H12.3506H12.3259H12.3012H12.2765H12.2518H12.2271H12.2024H12.1777H12.153H12.1283H12.1036H12.0789H12.0542H12.0295H12.0048H11.9801H11.9554H11.9307H11.906H11.8813H11.8566H11.8319H11.8072H11.7825H11.7578H11.7331H11.7084H11.6837H11.659H11.6343H11.6096H11.5849H11.5602H11.5355H11.5108H11.4861H11.4614H11.4367H11.412H11.3873H11.3626H11.3379H11.3132H11.2885H11.2638H11.2391H11.2144H11.1897H11.165H11.1403H11.1156H11.0909H11.0662H11.0415H11.0168H10.9921H10.9674H10.9427H10.918H10.8933H10.8686H10.8439H10.8192H10.7945H10.7698H10.7451H10.7204H10.6957H10.671H10.6463H10.6216H10.5969H10.5722H10.5475H10.5228H10.4981H10.4734H10.4487H10.424H10.3993H10.3746H10.3499H10.3252H10.3005H10.2758H10.2511H10.2264H10.2017H10.177H10.1523H10.1276H10.1029H10.0782H10.0535H10.0288H10.0041H9.97943H9.95473H9.93003H9.90533H9.88063H9.85593H9.83123H9.80653H9.78183H9.75713H9.73243H9.70773H9.68303H9.65833H9.63363H9.60893H9.58423H9.55953H9.53483H9.51013H9.48543H9.46073H9.43603H9.41133H9.38663H9.36193H9.33723H9.31253H9.28783H9.26313H9.23843H9.21373H9.18902H9.16432H9.13962H9.11492H9.09022H9.06552H9.04082H9.01612H8.99142H8.96672H8.94202H8.91732H8.89262H8.86792H8.84322H8.81852H8.79382H8.76912H8.74442H8.71972H8.69502H8.67032H8.64562H8.62092H8.59622H8.57152H8.54682H8.52212H8.49742H8.47272H8.44802H8.42332H8.39862H8.37392H8.34922H8.32451H8.29981H8.27511H8.25041H8.22571H8.20101H8.17631H8.15161H8.12691H8.10221H8.07751H8.05281H8.02811H8.00341H7.97871H7.95401H7.92931H7.9046H7.8799H7.8552H7.8305H7.8058H7.7811H7.7564H7.7317H7.707H7.6823H7.6576H7.6329H7.6082H7.5835H7.5588H7.53409H7.50939H7.48469H7.45999H7.43529H7.41059H7.38589H7.36119H7.33649H7.31179H7.28709H7.26239H7.23768H7.21298H7.18828H7.16358H7.13888H7.11418H7.08948H7.06478H7.04008H7.01538H6.99068H6.96597H6.94127H6.91657H6.89187H6.86717H6.84247H6.81777H6.79885C6.42462 27.5327 6.05042 27.5588 5.68092 27.6191L5.6809 27.619L5.67012 27.621C5.06467 27.7336 4.53999 27.9814 4.14822 28.3991C3.75597 28.8173 3.53609 29.3641 3.46601 30.004C3.33699 31.1628 3.80346 32.2984 4.9907 32.8632L4.99869 32.867L5.00681 32.8705C5.568 33.1135 6.17601 33.227 6.78637 33.2024H6.82177H6.86754H6.91332H6.95909H7.00486H7.05063H7.09641H7.14218H7.18795H7.23372H7.2795H7.32527H7.37104H7.41681H7.46259H7.50836H7.55413H7.5999H7.64568H7.69145H7.73722H7.78299H7.82877H7.87454H7.92031H7.96608H8.01186H8.05763H8.1034H8.14917H8.19495H8.24072H8.28649H8.33226H8.37803H8.42381H8.46958H8.51535H8.56112H8.6069H8.65267H8.69844H8.74421H8.78999H8.83576H8.88153H8.9273H8.97307H9.01885H9.06462H9.11039H9.15616H9.20193H9.24771H9.29348H9.33925H9.38502H9.4308H9.47657H9.52234H9.56811H9.61388H9.65966H9.70543H9.7512H9.79697H9.84274H9.88852H9.93429H9.98006H10.0258H10.0716H10.1174H10.1631H10.2089H10.2547H10.3005H10.3462H10.392H10.4378H10.4836H10.5293H10.5751H10.6209H10.6666H10.7124H10.7582H10.804H10.8497H10.8955H10.9413H10.987H11.0328H11.0786H11.1244H11.1701H11.2159H11.2617H11.3074H11.3532H11.399H11.4448H11.4905H11.5363H11.5821H11.6278H11.6736H11.7194H11.7652H11.8109H11.8567H11.9025H11.9482H11.994H12.0398H12.0856H12.1313H12.1771H12.2229H12.2687H12.3144H12.3602H12.406H12.4517H12.4975H12.5433H12.5891H12.6348H12.6806H12.7264H12.7721H12.8179H12.8637H12.9095H12.9552H13.001H13.0468H13.0925H13.1383H13.1841H13.2299H13.2756H13.3214H13.3672H13.4129H13.4587H13.5045H13.5503H13.596H13.6418H13.6876H13.7333H13.7791H13.8249H13.8706H13.9164H13.9622H14.008H14.0537H14.0995H14.1453H14.191H14.2368H14.2826H14.3284H14.3741H14.4199H14.4657H14.5114H14.5572H14.603H14.6488H14.6945H14.7403H14.7861H14.8318H14.8776H14.9234H14.9692H15.0149H15.0607H15.1065H15.1522H15.198H15.2438H15.2896H15.3353H15.3811H15.4269H15.4726H15.5184H15.5642H15.6099H15.6557H15.7015H15.7473H15.793H15.8388H15.8846H15.9303H15.9761H16.0219H16.0677H16.1134H16.1592H16.205H16.2507H16.2965H16.3423H16.3881H16.4338H16.4796H16.5254H16.5711H16.6169H16.6627H16.7084H16.7542H16.8H16.8458H16.8915H16.9373H16.9831H17.0288H17.0746H17.1204H17.1662H17.2119H17.2577H17.3035H17.3492H17.395H17.4408H17.4865H17.5323H17.5781H17.6239H17.6696H17.7154H17.7612H17.8069H17.8527H17.8985H17.9443H17.99H18.0358H18.0816H18.1273H18.1731H18.2189H18.2646H18.3104H18.3562H18.402H18.4477H18.4935H18.5393H18.585H18.6308H18.6766H18.7223H18.7681H18.8139H18.8597H18.9054H18.9512H18.997H19.0427H19.0885H19.1343H19.18H19.2258H19.2716H19.3174H19.3631H19.4089H19.4547H19.5004H19.5462H19.592H19.6377H19.6835H19.7293H19.7751H19.8208H19.8666H19.9124H19.9581H20.0039H20.0497H20.0954H20.1412H20.187H20.2328H20.2785H20.3243H20.3701H20.4158H20.4616H20.5074H20.5531H20.5989H20.6447H20.6905H20.7362H20.782H20.8278H20.8735H20.9193H20.9651H21.0108H21.0566H21.1024H21.1482H21.1939H21.2397H21.2855H21.3312H21.377H21.4228H21.4685H21.5143H21.5601H21.6059H21.6516H21.6974H21.7432H21.7889H21.8347H21.8805H21.9262H21.972H22.0178H22.0635H22.1093H22.1551H22.2009H22.2466H22.2924H22.3382H22.3839H22.4297H22.4755H22.5212H22.567H22.6128H22.6586H22.7043H22.7501H22.7959H22.8416H22.8874H22.9332H22.9789H23.0247H23.0705H23.1162H23.162H23.2078H23.2536H23.2993H23.3451H23.3909H23.4366H23.4824H23.5282H23.5739H23.6197H23.6655H23.7112H23.757H23.8028H23.8486H23.8943H23.9401H23.9859H24.0316H24.0774H24.1232H24.1689H24.2147H24.2605H24.3062H24.352H24.3978H24.4436H24.4893H24.5351H24.5809H24.6266H24.6724H24.7182H24.7639H24.8097H24.8555H24.9012H24.947H24.9928H25.0386H25.0843H25.1301H25.1759H25.2216H25.2674H25.3132H25.3589H25.4047H25.4505H25.4962H25.542H25.5878H25.6335H25.6793H25.7251H25.7709H25.8166H25.8624H25.9082H25.9539H25.9997H26.0455H26.0912H26.137H26.1828H26.2285H26.2743H26.3201H26.3658H26.4116H26.4574H26.5032H26.5489H26.5947H26.6405H26.6862H26.732H26.7778H26.8235H26.8693H26.9151H26.9608H27.0066H27.0524H27.0981H27.1439H27.1897H27.2354H27.2812H27.327H27.3728H27.4185H27.4643H27.5101H27.5558H27.6016H27.6474H27.6931H27.7389H27.7847H27.8304H27.8762H27.922H27.9677H28.0135H28.0593H28.105H28.1508H28.1966H28.2424H28.2881H28.3339H28.3797H28.4254H28.4712H28.517H28.5627H28.6085H28.6543H28.7H28.7458H28.7916H28.8373H28.8831H28.9289H28.9746H29.0204H29.0662H29.1119H29.1577H29.2035H29.2493H29.295H29.3408H29.3866H29.4323H29.4781H29.5239H29.5696H29.6154H29.6612H29.7069H29.7527H29.7985H29.8442H29.89H29.9358H29.9815H30.0273H30.0731H30.1188H30.1646H30.2049C31.098 33.2221 31.9914 33.182 32.8792 33.0823L32.8792 33.0823L32.8881 33.0812C34.192 32.9111 35.2556 31.8035 35.3344 30.522C35.379 29.7967 35.0359 29.0501 34.5258 28.4996C34.0106 27.9438 33.2632 27.5206 32.4169 27.5276Z" fill="url(#paint0_linear_3738_60124)" stroke="#175CAC"/>
<path d="M125.084 7.574C125.084 7.882 125.023 8.18067 124.902 8.47C124.781 8.75933 124.617 9.01133 124.412 9.226C124.692 9.43133 124.893 9.68333 125.014 9.982C125.135 10.2713 125.196 10.5747 125.196 10.892V11.48C125.196 11.872 125.14 12.2267 125.028 12.544C124.916 12.8613 124.757 13.1273 124.552 13.342C124.356 13.5567 124.118 13.72 123.838 13.832C123.567 13.944 123.264 14 122.928 14H118.588V4.466H122.802C123.138 4.466 123.446 4.522 123.726 4.634C124.006 4.746 124.244 4.90467 124.44 5.11C124.645 5.31533 124.804 5.56267 124.916 5.852C125.028 6.14133 125.084 6.45867 125.084 6.804V7.574ZM120.24 8.428H122.508C122.629 8.428 122.746 8.4 122.858 8.344C122.97 8.288 123.068 8.21333 123.152 8.12C123.245 8.02667 123.315 7.91933 123.362 7.798C123.409 7.66733 123.432 7.532 123.432 7.392V7.252C123.432 7.10267 123.409 6.96733 123.362 6.846C123.315 6.72467 123.245 6.61733 123.152 6.524C123.068 6.42133 122.97 6.342 122.858 6.286C122.746 6.23 122.629 6.202 122.508 6.202H120.24V8.428ZM123.558 11.088C123.558 10.948 123.53 10.8173 123.474 10.696C123.427 10.5653 123.362 10.4533 123.278 10.36C123.194 10.2667 123.091 10.192 122.97 10.136C122.858 10.08 122.741 10.052 122.62 10.052H120.24V12.236H122.62C122.741 12.236 122.858 12.208 122.97 12.152C123.091 12.096 123.194 12.0213 123.278 11.928C123.362 11.8347 123.427 11.7273 123.474 11.606C123.53 11.4753 123.558 11.3353 123.558 11.186V11.088ZM129.693 11.354H129.791C130.043 10.206 130.295 9.06267 130.547 7.924C130.809 6.776 131.065 5.628 131.317 4.48H133.319V14H131.947V7.812H131.863C131.639 8.848 131.406 9.884 131.163 10.92C130.921 11.9467 130.692 12.9733 130.477 14L128.951 14.014L127.649 7.826H127.551V14H126.165V4.48H128.167L129.693 11.354ZM138.884 8.092C139.276 8.092 139.64 8.16667 139.976 8.316C140.321 8.46533 140.615 8.67533 140.858 8.946C141.11 9.20733 141.301 9.52467 141.432 9.898C141.572 10.262 141.642 10.6633 141.642 11.102C141.642 11.5127 141.576 11.8953 141.446 12.25C141.324 12.6047 141.147 12.9127 140.914 13.174C140.68 13.426 140.405 13.6267 140.088 13.776C139.77 13.9253 139.416 14 139.024 14H134.684V12.236H138.52C138.706 12.236 138.884 12.2127 139.052 12.166C139.229 12.1193 139.378 12.0493 139.5 11.956C139.621 11.8627 139.719 11.746 139.794 11.606C139.868 11.466 139.906 11.298 139.906 11.102C139.906 10.738 139.784 10.4533 139.542 10.248C139.308 10.0427 139.014 9.94 138.66 9.94H137.526C137.05 9.94 136.616 9.88867 136.224 9.786C135.832 9.68333 135.5 9.52 135.23 9.296C134.959 9.072 134.749 8.78267 134.6 8.428C134.45 8.07333 134.376 7.64867 134.376 7.154C134.376 6.80867 134.436 6.47267 134.558 6.146C134.679 5.81933 134.847 5.53467 135.062 5.292C135.276 5.04 135.538 4.83933 135.846 4.69C136.154 4.54067 136.494 4.466 136.868 4.466H140.802V6.328H137.596C137.409 6.328 137.236 6.342 137.078 6.37C136.919 6.38867 136.779 6.43067 136.658 6.496C136.536 6.552 136.443 6.64067 136.378 6.762C136.312 6.88333 136.28 7.04667 136.28 7.252C136.28 7.48533 136.359 7.686 136.518 7.854C136.676 8.01267 136.891 8.092 137.162 8.092H138.884ZM150.683 8.092C151.075 8.092 151.439 8.16667 151.775 8.316C152.12 8.46533 152.414 8.67533 152.657 8.946C152.909 9.20733 153.1 9.52467 153.231 9.898C153.371 10.262 153.441 10.6633 153.441 11.102C153.441 11.5127 153.375 11.8953 153.245 12.25C153.123 12.6047 152.946 12.9127 152.713 13.174C152.479 13.426 152.204 13.6267 151.887 13.776C151.569 13.9253 151.215 14 150.823 14H146.483V12.236H150.319C150.505 12.236 150.683 12.2127 150.851 12.166C151.028 12.1193 151.177 12.0493 151.299 11.956C151.42 11.8627 151.518 11.746 151.593 11.606C151.667 11.466 151.705 11.298 151.705 11.102C151.705 10.738 151.583 10.4533 151.341 10.248C151.107 10.0427 150.813 9.94 150.459 9.94H149.325C148.849 9.94 148.415 9.88867 148.023 9.786C147.631 9.68333 147.299 9.52 147.029 9.296C146.758 9.072 146.548 8.78267 146.399 8.428C146.249 8.07333 146.175 7.64867 146.175 7.154C146.175 6.80867 146.235 6.47267 146.357 6.146C146.478 5.81933 146.646 5.53467 146.861 5.292C147.075 5.04 147.337 4.83933 147.645 4.69C147.953 4.54067 148.293 4.466 148.667 4.466H152.601V6.328H149.395C149.208 6.328 149.035 6.342 148.877 6.37C148.718 6.38867 148.578 6.43067 148.457 6.496C148.335 6.552 148.242 6.64067 148.177 6.762C148.111 6.88333 148.079 7.04667 148.079 7.252C148.079 7.48533 148.158 7.686 148.317 7.854C148.475 8.01267 148.69 8.092 148.961 8.092H150.683ZM158.131 11.354H158.229C158.481 10.206 158.733 9.06267 158.985 7.924C159.246 6.776 159.503 5.628 159.755 4.48H161.757V14H160.385V7.812H160.301C160.077 8.848 159.843 9.884 159.601 10.92C159.358 11.9467 159.129 12.9733 158.915 14L157.389 14.014L156.087 7.826H155.989V14H154.603V4.48H156.605L158.131 11.354ZM167.321 8.092C167.713 8.092 168.077 8.16667 168.413 8.316C168.759 8.46533 169.053 8.67533 169.295 8.946C169.547 9.20733 169.739 9.52467 169.869 9.898C170.009 10.262 170.079 10.6633 170.079 11.102C170.079 11.5127 170.014 11.8953 169.883 12.25C169.762 12.6047 169.585 12.9127 169.351 13.174C169.118 13.426 168.843 13.6267 168.525 13.776C168.208 13.9253 167.853 14 167.461 14H163.121V12.236H166.957C167.144 12.236 167.321 12.2127 167.489 12.166C167.667 12.1193 167.816 12.0493 167.937 11.956C168.059 11.8627 168.157 11.746 168.231 11.606C168.306 11.466 168.343 11.298 168.343 11.102C168.343 10.738 168.222 10.4533 167.979 10.248C167.746 10.0427 167.452 9.94 167.097 9.94H165.963C165.487 9.94 165.053 9.88867 164.661 9.786C164.269 9.68333 163.938 9.52 163.667 9.296C163.397 9.072 163.187 8.78267 163.037 8.428C162.888 8.07333 162.813 7.64867 162.813 7.154C162.813 6.80867 162.874 6.47267 162.995 6.146C163.117 5.81933 163.285 5.53467 163.499 5.292C163.714 5.04 163.975 4.83933 164.283 4.69C164.591 4.54067 164.932 4.466 165.305 4.466H169.239V6.328H166.033C165.847 6.328 165.674 6.342 165.515 6.37C165.357 6.38867 165.217 6.43067 165.095 6.496C164.974 6.552 164.881 6.64067 164.815 6.762C164.75 6.88333 164.717 7.04667 164.717 7.252C164.717 7.48533 164.797 7.686 164.955 7.854C165.114 8.01267 165.329 8.092 165.599 8.092H167.321Z" fill="#175BAC"/>
<mask id="path-3-outside-1_3738_60124" maskUnits="userSpaceOnUse" x="54.5034" y="21" width="117" height="31" fill="black">
<rect fill="white" x="54.5034" y="21" width="117" height="31"/>
<path d="M88.9937 42.7085C88.9937 43.868 88.7778 44.9533 88.3461 45.9644C87.9144 46.9621 87.3208 47.8384 86.5654 48.5934C85.8234 49.335 84.9465 49.9214 83.9347 50.3529C82.9364 50.7843 81.8639 51 80.7172 51H57.5763C56.4315 51 55.5034 50.0719 55.5034 48.9271C55.5034 47.7823 56.4315 46.8543 57.5763 46.8543H80.7172C81.2973 46.8543 81.8369 46.7464 82.3361 46.5307C82.8352 46.315 83.2669 46.0184 83.6312 45.6409C84.0089 45.2634 84.3057 44.8252 84.5215 44.3264C84.7374 43.814 84.8453 43.2748 84.8453 42.7085C84.8453 42.1423 84.7374 41.6097 84.5215 41.1109C84.3057 40.612 84.0089 40.1739 83.6312 39.7964C83.2669 39.4189 82.8352 39.1223 82.3361 38.9066C81.8369 38.6908 81.2973 38.583 80.7172 38.583H63.8001C62.6669 38.583 61.5944 38.3673 60.5826 37.9358C59.5708 37.5044 58.6872 36.9179 57.9317 36.1764C57.1897 35.4214 56.5962 34.5384 56.151 33.5272C55.7193 32.516 55.5034 31.4375 55.5034 30.2915C55.5034 29.159 55.7193 28.0872 56.151 27.076C56.5962 26.0649 57.1897 25.1885 57.9317 24.447C58.6872 23.692 59.5708 23.0988 60.5826 22.6674C61.5944 22.2225 62.6669 22 63.8001 22H84.8567C86.0015 22 86.9296 22.9281 86.9296 24.0729C86.9296 25.2177 86.0015 26.1457 84.8567 26.1457H63.8001C63.2335 26.1457 62.6939 26.2536 62.1812 26.4693C61.6821 26.685 61.2436 26.9816 60.8659 27.3591C60.4882 27.7366 60.1914 28.1815 59.9755 28.6939C59.7597 29.1927 59.6518 29.7252 59.6518 30.2915C59.6518 30.8577 59.7597 31.397 59.9755 31.9093C60.1914 32.4082 60.4882 32.8464 60.8659 33.2238C61.2436 33.6013 61.6821 33.898 62.1812 34.1137C62.6939 34.3294 63.2335 34.4372 63.8001 34.4372H80.7172C81.8639 34.4372 82.9364 34.6597 83.9347 35.1046C84.9465 35.536 85.8234 36.1292 86.5654 36.8842C87.3208 37.6258 87.9144 38.5021 88.3461 39.5133C88.7778 40.5109 88.9937 41.576 88.9937 42.7085Z"/>
<path d="M114.754 48.9258C114.754 50.0714 113.825 51 112.68 51C111.534 51 110.605 50.0714 110.605 48.9258V36.5C110.605 35.0709 110.336 33.7294 109.796 32.4756C109.256 31.2218 108.514 30.1297 107.57 29.1994C106.639 28.2557 105.54 27.5142 104.272 26.9749C103.017 26.4221 101.675 26.1457 100.245 26.1457C99.0154 26.1457 98.0188 27.1423 98.0188 28.3717V48.9258C98.0188 50.0714 97.0902 51 95.9446 51C94.7991 51 93.8705 50.0714 93.8705 48.9258V25C93.8705 23.3431 95.2136 22 96.8705 22H100.245C101.567 22 102.835 22.1753 104.049 22.5258C105.277 22.8629 106.423 23.3415 107.489 23.9616C108.555 24.5818 109.526 25.3233 110.403 26.1862C111.596 27.3602 113.763 27.3602 114.956 26.1862C115.833 25.3233 116.804 24.5818 117.87 23.9616C118.936 23.3415 120.076 22.8629 121.29 22.5258C122.518 22.1753 123.792 22 125.115 22H128.509C130.166 22 131.509 23.3431 131.509 25V48.9258C131.509 50.0714 130.58 51 129.435 51C128.289 51 127.361 50.0714 127.361 48.9258V28.3919C127.361 27.1514 126.355 26.1457 125.115 26.1457C123.685 26.1457 122.342 26.4221 121.088 26.9749C119.833 27.5142 118.734 28.2557 117.789 29.1994C116.858 30.1297 116.116 31.2218 115.563 32.4756C115.024 33.7294 114.754 35.0709 114.754 36.5V48.9258Z"/>
<path d="M170.503 42.7085C170.503 43.868 170.288 44.9533 169.856 45.9644C169.424 46.9621 168.831 47.8384 168.075 48.5934C167.333 49.335 166.456 49.9214 165.444 50.3529C164.446 50.7843 163.374 51 162.227 51H139.086C137.941 51 137.013 50.0719 137.013 48.9271C137.013 47.7823 137.941 46.8543 139.086 46.8543H162.227C162.807 46.8543 163.347 46.7464 163.846 46.5307C164.345 46.315 164.777 46.0184 165.141 45.6409C165.519 45.2634 165.815 44.8252 166.031 44.3264C166.247 43.814 166.355 43.2748 166.355 42.7085C166.355 42.1423 166.247 41.6097 166.031 41.1109C165.815 40.612 165.519 40.1739 165.141 39.7964C164.777 39.4189 164.345 39.1223 163.846 38.9066C163.347 38.6908 162.807 38.583 162.227 38.583H145.31C144.177 38.583 143.104 38.3673 142.092 37.9358C141.081 37.5044 140.197 36.9179 139.441 36.1764C138.7 35.4214 138.106 34.5384 137.661 33.5272C137.229 32.516 137.013 31.4375 137.013 30.2915C137.013 29.159 137.229 28.0872 137.661 27.076C138.106 26.0649 138.7 25.1885 139.441 24.447C140.197 23.692 141.081 23.0988 142.092 22.6674C143.104 22.2225 144.177 22 145.31 22H166.367C167.511 22 168.439 22.9281 168.439 24.0729C168.439 25.2177 167.511 26.1457 166.367 26.1457H145.31C144.743 26.1457 144.204 26.2536 143.691 26.4693C143.192 26.685 142.753 26.9816 142.376 27.3591C141.998 27.7366 141.701 28.1815 141.485 28.6939C141.269 29.1927 141.162 29.7252 141.162 30.2915C141.162 30.8577 141.269 31.397 141.485 31.9093C141.701 32.4082 141.998 32.8464 142.376 33.2238C142.753 33.6013 143.192 33.898 143.691 34.1137C144.204 34.3294 144.743 34.4372 145.31 34.4372H162.227C163.374 34.4372 164.446 34.6597 165.444 35.1046C166.456 35.536 167.333 36.1292 168.075 36.8842C168.831 37.6258 169.424 38.5021 169.856 39.5133C170.288 40.5109 170.503 41.576 170.503 42.7085Z"/>
</mask>
<path d="M88.9937 42.7085C88.9937 43.868 88.7778 44.9533 88.3461 45.9644C87.9144 46.9621 87.3208 47.8384 86.5654 48.5934C85.8234 49.335 84.9465 49.9214 83.9347 50.3529C82.9364 50.7843 81.8639 51 80.7172 51H57.5763C56.4315 51 55.5034 50.0719 55.5034 48.9271C55.5034 47.7823 56.4315 46.8543 57.5763 46.8543H80.7172C81.2973 46.8543 81.8369 46.7464 82.3361 46.5307C82.8352 46.315 83.2669 46.0184 83.6312 45.6409C84.0089 45.2634 84.3057 44.8252 84.5215 44.3264C84.7374 43.814 84.8453 43.2748 84.8453 42.7085C84.8453 42.1423 84.7374 41.6097 84.5215 41.1109C84.3057 40.612 84.0089 40.1739 83.6312 39.7964C83.2669 39.4189 82.8352 39.1223 82.3361 38.9066C81.8369 38.6908 81.2973 38.583 80.7172 38.583H63.8001C62.6669 38.583 61.5944 38.3673 60.5826 37.9358C59.5708 37.5044 58.6872 36.9179 57.9317 36.1764C57.1897 35.4214 56.5962 34.5384 56.151 33.5272C55.7193 32.516 55.5034 31.4375 55.5034 30.2915C55.5034 29.159 55.7193 28.0872 56.151 27.076C56.5962 26.0649 57.1897 25.1885 57.9317 24.447C58.6872 23.692 59.5708 23.0988 60.5826 22.6674C61.5944 22.2225 62.6669 22 63.8001 22H84.8567C86.0015 22 86.9296 22.9281 86.9296 24.0729C86.9296 25.2177 86.0015 26.1457 84.8567 26.1457H63.8001C63.2335 26.1457 62.6939 26.2536 62.1812 26.4693C61.6821 26.685 61.2436 26.9816 60.8659 27.3591C60.4882 27.7366 60.1914 28.1815 59.9755 28.6939C59.7597 29.1927 59.6518 29.7252 59.6518 30.2915C59.6518 30.8577 59.7597 31.397 59.9755 31.9093C60.1914 32.4082 60.4882 32.8464 60.8659 33.2238C61.2436 33.6013 61.6821 33.898 62.1812 34.1137C62.6939 34.3294 63.2335 34.4372 63.8001 34.4372H80.7172C81.8639 34.4372 82.9364 34.6597 83.9347 35.1046C84.9465 35.536 85.8234 36.1292 86.5654 36.8842C87.3208 37.6258 87.9144 38.5021 88.3461 39.5133C88.7778 40.5109 88.9937 41.576 88.9937 42.7085Z" fill="url(#paint1_linear_3738_60124)"/>
<path d="M114.754 48.9258C114.754 50.0714 113.825 51 112.68 51C111.534 51 110.605 50.0714 110.605 48.9258V36.5C110.605 35.0709 110.336 33.7294 109.796 32.4756C109.256 31.2218 108.514 30.1297 107.57 29.1994C106.639 28.2557 105.54 27.5142 104.272 26.9749C103.017 26.4221 101.675 26.1457 100.245 26.1457C99.0154 26.1457 98.0188 27.1423 98.0188 28.3717V48.9258C98.0188 50.0714 97.0902 51 95.9446 51C94.7991 51 93.8705 50.0714 93.8705 48.9258V25C93.8705 23.3431 95.2136 22 96.8705 22H100.245C101.567 22 102.835 22.1753 104.049 22.5258C105.277 22.8629 106.423 23.3415 107.489 23.9616C108.555 24.5818 109.526 25.3233 110.403 26.1862C111.596 27.3602 113.763 27.3602 114.956 26.1862C115.833 25.3233 116.804 24.5818 117.87 23.9616C118.936 23.3415 120.076 22.8629 121.29 22.5258C122.518 22.1753 123.792 22 125.115 22H128.509C130.166 22 131.509 23.3431 131.509 25V48.9258C131.509 50.0714 130.58 51 129.435 51C128.289 51 127.361 50.0714 127.361 48.9258V28.3919C127.361 27.1514 126.355 26.1457 125.115 26.1457C123.685 26.1457 122.342 26.4221 121.088 26.9749C119.833 27.5142 118.734 28.2557 117.789 29.1994C116.858 30.1297 116.116 31.2218 115.563 32.4756C115.024 33.7294 114.754 35.0709 114.754 36.5V48.9258Z" fill="url(#paint2_linear_3738_60124)"/>
<path d="M170.503 42.7085C170.503 43.868 170.288 44.9533 169.856 45.9644C169.424 46.9621 168.831 47.8384 168.075 48.5934C167.333 49.335 166.456 49.9214 165.444 50.3529C164.446 50.7843 163.374 51 162.227 51H139.086C137.941 51 137.013 50.0719 137.013 48.9271C137.013 47.7823 137.941 46.8543 139.086 46.8543H162.227C162.807 46.8543 163.347 46.7464 163.846 46.5307C164.345 46.315 164.777 46.0184 165.141 45.6409C165.519 45.2634 165.815 44.8252 166.031 44.3264C166.247 43.814 166.355 43.2748 166.355 42.7085C166.355 42.1423 166.247 41.6097 166.031 41.1109C165.815 40.612 165.519 40.1739 165.141 39.7964C164.777 39.4189 164.345 39.1223 163.846 38.9066C163.347 38.6908 162.807 38.583 162.227 38.583H145.31C144.177 38.583 143.104 38.3673 142.092 37.9358C141.081 37.5044 140.197 36.9179 139.441 36.1764C138.7 35.4214 138.106 34.5384 137.661 33.5272C137.229 32.516 137.013 31.4375 137.013 30.2915C137.013 29.159 137.229 28.0872 137.661 27.076C138.106 26.0649 138.7 25.1885 139.441 24.447C140.197 23.692 141.081 23.0988 142.092 22.6674C143.104 22.2225 144.177 22 145.31 22H166.367C167.511 22 168.439 22.9281 168.439 24.0729C168.439 25.2177 167.511 26.1457 166.367 26.1457H145.31C144.743 26.1457 144.204 26.2536 143.691 26.4693C143.192 26.685 142.753 26.9816 142.376 27.3591C141.998 27.7366 141.701 28.1815 141.485 28.6939C141.269 29.1927 141.162 29.7252 141.162 30.2915C141.162 30.8577 141.269 31.397 141.485 31.9093C141.701 32.4082 141.998 32.8464 142.376 33.2238C142.753 33.6013 143.192 33.898 143.691 34.1137C144.204 34.3294 144.743 34.4372 145.31 34.4372H162.227C163.374 34.4372 164.446 34.6597 165.444 35.1046C166.456 35.536 167.333 36.1292 168.075 36.8842C168.831 37.6258 169.424 38.5021 169.856 39.5133C170.288 40.5109 170.503 41.576 170.503 42.7085Z" fill="url(#paint3_linear_3738_60124)"/>
<path d="M88.9937 42.7085C88.9937 43.868 88.7778 44.9533 88.3461 45.9644C87.9144 46.9621 87.3208 47.8384 86.5654 48.5934C85.8234 49.335 84.9465 49.9214 83.9347 50.3529C82.9364 50.7843 81.8639 51 80.7172 51H57.5763C56.4315 51 55.5034 50.0719 55.5034 48.9271C55.5034 47.7823 56.4315 46.8543 57.5763 46.8543H80.7172C81.2973 46.8543 81.8369 46.7464 82.3361 46.5307C82.8352 46.315 83.2669 46.0184 83.6312 45.6409C84.0089 45.2634 84.3057 44.8252 84.5215 44.3264C84.7374 43.814 84.8453 43.2748 84.8453 42.7085C84.8453 42.1423 84.7374 41.6097 84.5215 41.1109C84.3057 40.612 84.0089 40.1739 83.6312 39.7964C83.2669 39.4189 82.8352 39.1223 82.3361 38.9066C81.8369 38.6908 81.2973 38.583 80.7172 38.583H63.8001C62.6669 38.583 61.5944 38.3673 60.5826 37.9358C59.5708 37.5044 58.6872 36.9179 57.9317 36.1764C57.1897 35.4214 56.5962 34.5384 56.151 33.5272C55.7193 32.516 55.5034 31.4375 55.5034 30.2915C55.5034 29.159 55.7193 28.0872 56.151 27.076C56.5962 26.0649 57.1897 25.1885 57.9317 24.447C58.6872 23.692 59.5708 23.0988 60.5826 22.6674C61.5944 22.2225 62.6669 22 63.8001 22H84.8567C86.0015 22 86.9296 22.9281 86.9296 24.0729C86.9296 25.2177 86.0015 26.1457 84.8567 26.1457H63.8001C63.2335 26.1457 62.6939 26.2536 62.1812 26.4693C61.6821 26.685 61.2436 26.9816 60.8659 27.3591C60.4882 27.7366 60.1914 28.1815 59.9755 28.6939C59.7597 29.1927 59.6518 29.7252 59.6518 30.2915C59.6518 30.8577 59.7597 31.397 59.9755 31.9093C60.1914 32.4082 60.4882 32.8464 60.8659 33.2238C61.2436 33.6013 61.6821 33.898 62.1812 34.1137C62.6939 34.3294 63.2335 34.4372 63.8001 34.4372H80.7172C81.8639 34.4372 82.9364 34.6597 83.9347 35.1046C84.9465 35.536 85.8234 36.1292 86.5654 36.8842C87.3208 37.6258 87.9144 38.5021 88.3461 39.5133C88.7778 40.5109 88.9937 41.576 88.9937 42.7085Z" stroke="url(#paint4_linear_3738_60124)" stroke-width="2" mask="url(#path-3-outside-1_3738_60124)"/>
<path d="M114.754 48.9258C114.754 50.0714 113.825 51 112.68 51C111.534 51 110.605 50.0714 110.605 48.9258V36.5C110.605 35.0709 110.336 33.7294 109.796 32.4756C109.256 31.2218 108.514 30.1297 107.57 29.1994C106.639 28.2557 105.54 27.5142 104.272 26.9749C103.017 26.4221 101.675 26.1457 100.245 26.1457C99.0154 26.1457 98.0188 27.1423 98.0188 28.3717V48.9258C98.0188 50.0714 97.0902 51 95.9446 51C94.7991 51 93.8705 50.0714 93.8705 48.9258V25C93.8705 23.3431 95.2136 22 96.8705 22H100.245C101.567 22 102.835 22.1753 104.049 22.5258C105.277 22.8629 106.423 23.3415 107.489 23.9616C108.555 24.5818 109.526 25.3233 110.403 26.1862C111.596 27.3602 113.763 27.3602 114.956 26.1862C115.833 25.3233 116.804 24.5818 117.87 23.9616C118.936 23.3415 120.076 22.8629 121.29 22.5258C122.518 22.1753 123.792 22 125.115 22H128.509C130.166 22 131.509 23.3431 131.509 25V48.9258C131.509 50.0714 130.58 51 129.435 51C128.289 51 127.361 50.0714 127.361 48.9258V28.3919C127.361 27.1514 126.355 26.1457 125.115 26.1457C123.685 26.1457 122.342 26.4221 121.088 26.9749C119.833 27.5142 118.734 28.2557 117.789 29.1994C116.858 30.1297 116.116 31.2218 115.563 32.4756C115.024 33.7294 114.754 35.0709 114.754 36.5V48.9258Z" stroke="url(#paint5_linear_3738_60124)" stroke-width="2" mask="url(#path-3-outside-1_3738_60124)"/>
<path d="M170.503 42.7085C170.503 43.868 170.288 44.9533 169.856 45.9644C169.424 46.9621 168.831 47.8384 168.075 48.5934C167.333 49.335 166.456 49.9214 165.444 50.3529C164.446 50.7843 163.374 51 162.227 51H139.086C137.941 51 137.013 50.0719 137.013 48.9271C137.013 47.7823 137.941 46.8543 139.086 46.8543H162.227C162.807 46.8543 163.347 46.7464 163.846 46.5307C164.345 46.315 164.777 46.0184 165.141 45.6409C165.519 45.2634 165.815 44.8252 166.031 44.3264C166.247 43.814 166.355 43.2748 166.355 42.7085C166.355 42.1423 166.247 41.6097 166.031 41.1109C165.815 40.612 165.519 40.1739 165.141 39.7964C164.777 39.4189 164.345 39.1223 163.846 38.9066C163.347 38.6908 162.807 38.583 162.227 38.583H145.31C144.177 38.583 143.104 38.3673 142.092 37.9358C141.081 37.5044 140.197 36.9179 139.441 36.1764C138.7 35.4214 138.106 34.5384 137.661 33.5272C137.229 32.516 137.013 31.4375 137.013 30.2915C137.013 29.159 137.229 28.0872 137.661 27.076C138.106 26.0649 138.7 25.1885 139.441 24.447C140.197 23.692 141.081 23.0988 142.092 22.6674C143.104 22.2225 144.177 22 145.31 22H166.367C167.511 22 168.439 22.9281 168.439 24.0729C168.439 25.2177 167.511 26.1457 166.367 26.1457H145.31C144.743 26.1457 144.204 26.2536 143.691 26.4693C143.192 26.685 142.753 26.9816 142.376 27.3591C141.998 27.7366 141.701 28.1815 141.485 28.6939C141.269 29.1927 141.162 29.7252 141.162 30.2915C141.162 30.8577 141.269 31.397 141.485 31.9093C141.701 32.4082 141.998 32.8464 142.376 33.2238C142.753 33.6013 143.192 33.898 143.691 34.1137C144.204 34.3294 144.743 34.4372 145.31 34.4372H162.227C163.374 34.4372 164.446 34.6597 165.444 35.1046C166.456 35.536 167.333 36.1292 168.075 36.8842C168.831 37.6258 169.424 38.5021 169.856 39.5133C170.288 40.5109 170.503 41.576 170.503 42.7085Z" stroke="url(#paint6_linear_3738_60124)" stroke-width="2" mask="url(#path-3-outside-1_3738_60124)"/>
<defs>
<linearGradient id="paint0_linear_3738_60124" x1="2.53318" y1="33.6275" x2="145.519" y2="31.5429" gradientUnits="userSpaceOnUse">
<stop stop-color="#1A53A3"/>
<stop offset="1" stop-color="#0D70C1"/>
</linearGradient>
<linearGradient id="paint1_linear_3738_60124" x1="55.5034" y1="36.5" x2="170.503" y2="36.5" gradientUnits="userSpaceOnUse">
<stop stop-color="#185AAA"/>
<stop offset="1" stop-color="#0D75C6"/>
</linearGradient>
<linearGradient id="paint2_linear_3738_60124" x1="55.5034" y1="36.5" x2="170.503" y2="36.5" gradientUnits="userSpaceOnUse">
<stop stop-color="#185AAA"/>
<stop offset="1" stop-color="#0D75C6"/>
</linearGradient>
<linearGradient id="paint3_linear_3738_60124" x1="55.5034" y1="36.5" x2="170.503" y2="36.5" gradientUnits="userSpaceOnUse">
<stop stop-color="#185AAA"/>
<stop offset="1" stop-color="#0D75C6"/>
</linearGradient>
<linearGradient id="paint4_linear_3738_60124" x1="55.5034" y1="36.5" x2="170.503" y2="36.5" gradientUnits="userSpaceOnUse">
<stop stop-color="#175CAC"/>
<stop offset="1" stop-color="#0E73C4"/>
</linearGradient>
<linearGradient id="paint5_linear_3738_60124" x1="55.5034" y1="36.5" x2="170.503" y2="36.5" gradientUnits="userSpaceOnUse">
<stop stop-color="#175CAC"/>
<stop offset="1" stop-color="#0E73C4"/>
</linearGradient>
<linearGradient id="paint6_linear_3738_60124" x1="55.5034" y1="36.5" x2="170.503" y2="36.5" gradientUnits="userSpaceOnUse">
<stop stop-color="#175CAC"/>
<stop offset="1" stop-color="#0E73C4"/>
</linearGradient>
</defs>
</svg>
